<?xml version="1.0" encoding="UTF-8" standalone="no"?>
<!-- Created with Inkscape (http://www.inkscape.org/) -->

<svg
   width="34.797001mm"
   height="68.094002mm"
   viewBox="0 0 34.797001 68.094002"
   version="1.1"
   id="svg1"
   inkscape:version="1.4.2 (ebf0e940d0, 2025-05-08)"
   sodipodi:docname="icon.svg"
   xmlns:inkscape="http://www.inkscape.org/namespaces/inkscape"
   xmlns:sodipodi="http://sodipodi.sourceforge.net/DTD/sodipodi-0.dtd"
   xmlns="http://www.w3.org/2000/svg"
   xmlns:svg="http://www.w3.org/2000/svg">
  <sodipodi:namedview
     id="namedview1"
     pagecolor="#ffffff"
     bordercolor="#000000"
     borderopacity="0.25"
     inkscape:showpageshadow="2"
     inkscape:pageopacity="0.0"
     inkscape:pagecheckerboard="0"
     inkscape:deskcolor="#d1d1d1"
     inkscape:document-units="mm"
     inkscape:zoom="2.8284271"
     inkscape:cx="37.47666"
     inkscape:cy="161.75068"
     inkscape:window-width="1920"
     inkscape:window-height="1008"
     inkscape:window-x="0"
     inkscape:window-y="0"
     inkscape:window-maximized="1"
     inkscape:current-layer="layer1" />
  <defs
     id="defs1">
    <linearGradient
       id="swatch1"
       inkscape:swatch="solid">
      <stop
         style="stop-color:#000000;stop-opacity:1;"
         offset="0"
         id="stop1" />
    </linearGradient>
  </defs>
  <g
     inkscape:label="Layer 1"
     inkscape:groupmode="layer"
     id="layer1"
     transform="translate(-27.981336,-19.540641)">
    <ellipse
       style="fill:#ffffff;stroke:#000000;stroke-width:1.139;stroke-dasharray:none;paint-order:markers fill stroke"
       id="path1"
       cx="45.155312"
       cy="34.178761"
       rx="12.270137"
       ry="11.662098" />
    <rect
       style="fill:#ffffff;fill-opacity:1;stroke:#000000;stroke-width:1.065;stroke-opacity:1;stroke-dasharray:none"
       id="rect2"
       width="27.164492"
       height="5.2685041"
       x="31.479258"
       y="74.773117" />
    <rect
       style="fill:#ffffff;fill-opacity:1;stroke:#000000;stroke-width:1.08;stroke-opacity:1;stroke-dasharray:none"
       id="rect2-1"
       width="30.516649"
       height="5.2530651"
       x="29.805145"
       y="80.048279" />
    <rect
       style="fill:#ffffff;fill-opacity:1;stroke:#000000;stroke-width:0.965;stroke-dasharray:none;stroke-opacity:1"
       id="rect2-3"
       width="27.164492"
       height="5.2685041"
       x="31.478361"
       y="42.773808" />
    <path
       style="fill:#ffffff;fill-opacity:1;stroke:#000000;stroke-width:1.064;stroke-opacity:1;stroke-dasharray:none"
       d="m 31.480719,74.69328 c 6.445156,-23.993955 0,-26.65873 0,-26.65873"
       id="path24" />
    <path
       style="fill:#ffffff;fill-opacity:1;stroke:#000000;stroke-width:1.064;stroke-opacity:1;stroke-dasharray:none"
       d="m 58.646048,74.706898 c -6.445156,-23.993955 0,-26.65873 0,-26.65873"
       id="path24-3" />
    <path
       style="fill:#ffffff;stroke:#000000;stroke-width:0.865;stroke-dasharray:none;paint-order:markers fill stroke"
       d="m 38.937829,33.605801 c -0.168129,0.280215 0.03581,-0.07162 -0.140316,0.280633 -0.01257,0.02514 -0.03789,0.0435 -0.04677,0.07016 -0.01053,0.03161 -0.01757,0.128829 -0.02339,0.163703 -0.02519,0.151175 -0.09508,0.291362 -0.11693,0.444336 -0.03064,0.21449 -0.0089,0.560631 0.09354,0.748353 0.02389,0.04382 0.06586,0.0754 0.09355,0.116933 0.0043,0.0065 -0.0055,0.01786 0,0.02339 0.02339,0.01558 0.04677,0.03118 0.07016,0.04677 0.0078,0 0.01691,-0.0043 0.02339,0 0.06008,0.04005 0.09223,0.07387 0.18709,0.04677 0.09269,-0.02649 0.105582,-0.06803 0.187087,-0.11693 0.209002,-0.125402 0.416311,-0.256844 0.631425,-0.374179 0.07369,-0.04019 0.174244,-0.0583 0.257247,-0.07016 0.03859,-0.0055 0.08074,0.01447 0.11693,0 0.02609,-0.01045 0.04406,-0.03634 0.07016,-0.04677 0.02141,-0.0085 0.34236,-0.01273 0.374177,0 0.03714,0.01487 0.235659,0.377775 0.257246,0.420949 0.02979,0.05957 0.0366,0.129559 0.07016,0.18709 0.02222,0.03809 0.06908,0.05685 0.09354,0.09354 0.02426,0.03638 0.131871,0.272839 0.163703,0.327406 0.02832,0.04855 0.06663,0.09097 0.09354,0.140317 0.08177,0.149913 0.280895,0.623803 0.397566,0.701582 0.07252,0.04834 0.153752,0.0826 0.23386,0.11693 0.04299,0.01842 0.09391,-0.0058 0.140316,0 0.02447,0.0031 0.04677,0.01558 0.07016,0.02339 0.03118,0.0078 0.0616,0.01984 0.09354,0.02339 0.205928,0.02289 0.424635,0 0.631423,0 0.163703,0 0.327406,0 0.491109,0 0.07016,0 0.143275,0.02016 0.210474,0 0.351856,-0.105558 -0.01125,-0.03811 0.304019,-0.116932 0.09562,-0.02389 0.206092,0.01508 0.30402,0 0.17046,-0.02622 0.383524,-0.08627 0.561265,-0.04677 0.03403,0.0076 0.06161,0.0328 0.09355,0.04677 0.09284,0.04062 0.185931,0.08085 0.280633,0.116932 0.383424,0.146066 0.811456,0.264182 1.216076,0.327404 0.07702,0.01204 0.156321,-0.008 0.23386,0 0.149151,0.01543 0.29488,0.05804 0.444336,0.07016 0.318468,0.02582 0.661413,0 0.982215,0 0.240464,0 0.622099,0.04743 0.841899,-0.04677 0.166526,-0.07137 0.417412,-0.289004 0.514495,-0.444336 0.01307,-0.0209 0.01236,-0.04811 0.02339,-0.07016 0.02032,-0.04066 0.0571,-0.07339 0.07016,-0.11693 0.02659,-0.08862 0,-0.287308 0,-0.374179 0,-0.156932 0.02569,-0.336883 0,-0.491106 -0.02941,-0.176432 -0.01164,-0.01159 -0.07016,-0.187089 -0.01823,-0.05467 -0.0056,-0.133829 -0.02339,-0.18709 -0.0089,-0.02666 -0.0357,-0.04432 -0.04677,-0.07016 -0.02761,-0.110455 -0.009,-0.0648 -0.04677,-0.140316"
       id="path2" />
    <path
       style="fill:#ffffff;stroke:#000000;stroke-width:0.865;stroke-dasharray:none;paint-order:markers fill stroke"
       d="m 42.165047,26.420392 c -0.140046,0.173747 -0.278862,0.391049 -0.46302,0.529167 -0.07676,0.05757 -0.241533,0.119262 -0.297657,0.23151 -0.01558,0.03118 -0.01513,0.06932 -0.03307,0.09922 -0.01603,0.02674 -0.05457,0.0372 -0.06615,0.06615 -0.01228,0.03071 0.008,0.06713 0,0.09922 -0.0026,0.01051 -0.06103,0.144915 -0.06615,0.165364 -0.01069,0.04278 0.0072,0.08879 0,0.132292 -0.02093,0.125615 -0.101214,0.239494 -0.132292,0.363802 -0.04146,0.16583 0,0.454236 0,0.628385"
       id="path8" />
    <path
       style="fill:#ffffff;stroke:#000000;stroke-width:0.865;stroke-dasharray:none;paint-order:markers fill stroke"
       d="m 50.262237,28.044977 c 0.0441,0.03307 0.09922,0.143316 0.132292,0.09922 0.03307,-0.0441 -0.171268,-0.138196 -0.132292,-0.09922 0.104876,0.104876 0.264401,0.164998 0.330729,0.297657 0.0254,0.0508 0.0088,0.291001 0.03307,0.363802 0.0049,0.01479 0.02814,0.01828 0.03307,0.03307 0.01625,0.04872 -0.01902,0.117792 0,0.165364 0.01831,0.04578 0.04784,0.08652 0.06615,0.132292 0.03348,0.0837 0,0.393787 0,0.496093 0,0.38585 0,0.771703 0,1.157553"
       id="path9" />
    <path
       style="fill:#ffffff;stroke:#000000;stroke-width:0.264999;stroke-dasharray:none;paint-order:markers fill stroke"
       d="m 50.046106,28.276805 c -0.002,-0.002 -0.0039,-0.0078 -0.0058,-0.0058 -0.002,0.002 0.0058,0.0086 0.0058,0.0058 0,-0.0048 -0.0043,-0.0086 -0.0058,-0.01316 -0.0015,-0.0045 -7.93e-4,-0.0129 -0.0015,-0.01754 -1.54e-4,-0.0011 -0.0013,-0.0019 -0.0015,-0.0029 0,-0.01001 6.08e-4,-0.0019 -0.0015,-0.01023 -9e-4,-0.0036 0.0013,-0.0083 0,-0.01169 -6.62e-4,-0.0016 -0.0023,-0.0028 -0.0029,-0.0044 -0.0011,-0.0028 5.82e-4,-0.0073 0,-0.01023 -8.2e-4,-0.0041 -0.0025,-0.0091 -0.0029,-0.01316 -4.76e-4,-0.0044 8.74e-4,-0.0089 0,-0.01316 -2.13e-4,-0.0011 -0.0013,-0.0019 -0.0015,-0.0029 -0.0019,-0.01118 0,-0.03177 0,-0.04385 0,-0.01253 -0.0016,-0.02694 0,-0.03946 0.0012,-0.0099 0.0048,-0.01913 0.0058,-0.02923 3.96e-4,-0.0039 -9.53e-4,-0.0079 0,-0.01169 0.0013,-0.0052 0.0053,-0.01134 0.0073,-0.01608 0.0014,-0.0033 0.0016,-0.007 0.0029,-0.01023 0.0055,-0.01316 0.0128,-0.02449 0.02046,-0.03654 0.0046,-0.0073 0.0075,-0.01582 0.01169,-0.02339 0.0014,-0.0025 0.0033,-0.0047 0.0044,-0.0073 9.26e-4,-0.0023 4.76e-4,-0.005 0.0015,-0.0073 5.56e-4,-0.0013 0.002,-0.002 0.0029,-0.0029 9.79e-4,-0.002 0.0022,-0.0038 0.0029,-0.0058 0.0017,-0.0045 0.0015,-0.0085 0.0029,-0.01316 0.0021,-0.007 0.0045,-0.01519 0.0073,-0.02192 0.0049,-0.01176 0.01295,-0.02127 0.019,-0.03216 0.0013,-0.0023 0.0017,-0.005 0.0029,-0.0073 0.002,-0.0041 0.0182,-0.02285 0.02192,-0.02631 0.0041,-0.0038 0.0089,-0.0066 0.01315,-0.01023 0.0042,-0.0036 0.0075,-0.0081 0.01169,-0.01169 0.0058,-0.0051 0.01293,-0.0086 0.019,-0.01316 0.0077,-0.0058 0.01522,-0.01234 0.02339,-0.01754 0.0082,-0.0052 0.01889,-0.0094 0.02777,-0.01316 0.0061,-0.0026 0.0157,-0.004 0.02192,-0.0058 0.01071,-0.0032 -0.01313,-6.35e-4 0.01316,-0.0044 0.0058,-8.2e-4 0.0119,0.0015 0.01754,0 0.02134,-0.0058 -0.0035,-0.0037 0.01754,-0.0058 0.0083,-8.2e-4 0.01656,-0.0011 0.02485,-0.0015 0.0088,-3.44e-4 0.01776,0.002 0.02631,0 0.0036,-8.47e-4 0.0067,-0.0034 0.01023,-0.0044 0.0062,-0.0017 0.02346,0 0.02923,0 0.0086,0 0.02047,-0.0017 0.02923,0 0.0054,0.0011 0.0029,0.01817 0.0029,0.02192 0,0.0049 0.0017,0.01299 0,0.01754 -0.0017,0.0045 -0.006,0.01442 -0.0088,0.019 -7.15e-4,0.0012 -0.0022,0.0017 -0.0029,0.0029 -7.94e-4,0.0013 -6.09e-4,0.0031 -0.0015,0.0044 -0.01037,0.01555 0.0019,-0.0084 -0.0088,0.01023 -0.003,0.0053 -0.0046,0.0097 -0.0088,0.01461 -0.0051,0.006 -0.0094,0.01321 -0.01462,0.019 -0.0016,0.0018 -0.0041,0.0027 -0.0058,0.0044 -0.0037,0.0037 -0.0067,0.0079 -0.01023,0.01169 -0.0069,0.0075 -0.01537,0.01406 -0.02192,0.02192 -6.88e-4,8.46e-4 -6.88e-4,0.0021 -0.0015,0.0029 -0.0012,0.0012 -0.01702,0.0163 -0.019,0.01754 -0.0022,0.0014 -0.0051,0.0015 -0.0073,0.0029 -0.0033,0.0021 -0.0091,0.0094 -0.01169,0.01169 -0.01597,0.01369 -0.03201,0.0274 -0.04823,0.04093 -0.0058,0.0048 -0.0043,0.0057 -0.0073,0.01023 -0.0032,0.0047 -0.0095,0.0089 -0.01315,0.01315 -0.0011,0.0013 -0.0017,0.0031 -0.0029,0.0044 -0.0017,0.0017 -0.004,0.0028 -0.0058,0.0044 -0.01203,0.01053 -0.0012,0.0013 -0.0088,0.01023 -0.0036,0.0042 -0.0082,0.0075 -0.01169,0.01169 -0.005,0.0059 -0.0084,0.01305 -0.01315,0.019 -0.0052,0.0065 -0.007,0.0062 -0.01169,0.01169 -0.0033,0.0038 -0.0049,0.008 -0.0073,0.01169 -0.0054,0.0082 -5.3e-4,-0.0033 -0.0058,0.0073 -6.88e-4,0.0014 -6.88e-4,0.003 -0.0015,0.0044 -0.0037,0.0065 -0.0061,0.0062 -0.01023,0.01315 -0.0014,0.0022 -0.0016,0.0051 -0.0029,0.0073 -0.0016,0.0027 -0.0041,0.0047 -0.0058,0.0073 -0.0036,0.0054 -0.0062,0.01165 -0.0088,0.01754 -0.0019,0.0045 -0.0053,0.0069 -0.0073,0.01169 -0.0055,0.01287 -0.009,0.02724 -0.01169,0.04093 -6.61e-4,0.0033 2.91e-4,0.0068 0,0.01023 -2.91e-4,0.0034 -10e-4,0.0068 -0.0015,0.01023 -0.0026,0.0208 0.005,0.04753 -0.0029,0.06723 -0.0018,0.0045 -0.005,0.01146 -0.0073,0.01608 -0.0028,0.0056 -0.0085,0.0173 -0.01316,0.02192 -0.0022,0.0022 -0.0049,0.0038 -0.0073,0.0058 -0.0045,0.0038 -0.01064,0.0119 -0.01608,0.01462 -0.0043,0.0022 -0.01031,-0.0056 -0.01316,-0.0073 -0.004,-0.0024 -0.0075,-0.0026 -0.01169,-0.0044 -0.01158,-0.005 -0.02503,-0.0106 -0.0307,-0.02192 -0.0043,-0.0086 -6.87e-4,-0.0217 -0.0029,-0.03069 -6.35e-4,-0.0025 -0.0025,-0.0047 -0.0029,-0.0073 -8.2e-4,-0.0045 0,-0.01266 0,-0.01754 0,-0.03576 0.0146,-0.06173 0.03654,-0.08916 0.0076,-0.0095 0.01527,-0.01979 0.02485,-0.02777 0.01051,-0.0088 0.005,-0.0039 0.01316,-0.0088 0.0024,-0.0014 0.0036,-0.0042 0.0058,-0.0058 0.0039,-0.003 0.0024,2.5e-5 0.0073,-0.0029 0.0073,-0.0044 0,-0.0015 0.0044,-0.0044 7.41e-4,-0.0032 0.003,-7.67e-4 0.0044,-0.0015 0.0054,-0.0027 0.0091,-0.01002 0.01462,-0.01315 0.0013,-7.67e-4 0.0031,-6.35e-4 0.0044,-0.0015 0.004,-0.0025 0.0098,-0.0079 0.01315,-0.01169 0.0025,-0.0029 0.0056,-0.0054 0.0073,-0.0088 6.88e-4,-0.0014 5.56e-4,-0.0031 0.0015,-0.0044 0.0039,-0.0054 0.0076,-0.0069 0.01023,-0.01316 5.82e-4,-0.0013 -3.44e-4,-0.003 0,-0.0044 1.67e-4,-6.62e-4 0.0012,-8.21e-4 0.0015,-0.0015 7.41e-4,-0.0019 7.14e-4,-0.004 0.0015,-0.0058 -0.0063,-0.0088 0.0044,-0.0066 0.0058,-0.01023 0.0045,-0.01123 -0.0019,-1.97e-4 0.0029,-0.01315 6.09e-4,-0.0016 0.0021,-0.0028 0.0029,-0.0044 0.0038,-0.0076 0.0065,-0.01583 0.01023,-0.02339 0.0049,-0.0098 0.01114,-0.01935 0.01608,-0.02923 0.0024,-0.0047 0.0037,-0.0098 0.0058,-0.01461 0.0024,-0.0054 0.0057,-0.0085 0.0088,-0.01316 0.003,-0.0046 0.0052,-0.0089 0.0088,-0.01315 0.0044,-0.0053 0.01316,-0.0116 0.01316,-0.019"
       id="path13" />
    <path
       style="fill:#ffffff;stroke:#000000;stroke-width:0.35411;paint-order:fill markers stroke"
       d="m 17.563605,200.37639 c 3.480182,-13.99599 6.083862,-27.79983 7.58567,-40.2167 1.078678,-8.91845 1.182108,-26.02083 0.193507,-31.99658 -1.291155,-7.80458 -3.355953,-13.89193 -5.966201,-17.58929 l -0.686401,-0.97227 h 45.82928 45.82928 l -0.92337,1.5026 c -9.28398,15.10784 -8.56585,46.12558 2.06276,89.09546 l 1.55226,6.27557 H 64.543746 16.047104 Z"
       id="path3"
       transform="matrix(0.26458333,0,0,0.26458333,27.981336,19.540641)" />
  </g>
</svg>
